<?xml version="1.0" encoding="utf-8"?>
<svg xmlns="http://www.w3.org/2000/svg" xmlns:xlink="http://www.w3.org/1999/xlink" version= "1.1" width="720px" height="1424px" viewBox="0 0 720 1424">
<g id="layer1">
<g style="fill:rgb(0,0,0); fill-opacity:1.0; stroke-linejoin: miter">
<path d="M528.8336,891.7459L528.8336,891.74664L528.8336,891.7473L528.83386,891.74664L528.83386,891.74725C530.89685,891.17114,533.1497,890.4908,533.84283,890.2899C536.59296,889.4934,544.6282,887.5611,547.2196,887.03265C548.77484,886.71576,551.5558,886.0789,553.42896,885.6129C557.5955,884.5768,577.0643,880.8795,582.1635,880.0803C584.1986,879.76105,586.52576,879.3562,587.3994,879.19617C588.2549,879.0391,590.72534,878.69415,592.9238,878.41003C595.13745,878.12415,598.1382,877.7148,599.67163,877.48193C607.11127,876.3542,634.41364,878.96893,643.1081,881.6367C653.53015,884.83405,657.02136,885.8373,659.9474,886.482C661.70654,886.86945,664.9663,887.73413,667.22894,888.3951C669.4349,889.0391,674.18634,890.01984,677.7913,890.5548C686.5322,891.4662,696.5259,890.1044,696.5259,890.1044C699.4121,889.71124,704.0667,889.0989,709.0944,888.429C716.63525,887.4237,718.7833,887.08923,720.45447,886.7765C721.4391,886.59216,723.2914,886.3393,724.444,886.2121C728.5484,885.75903,732.1,885.20844,733.3501,884.9028C734.0292,884.73676,736.25226,884.3923,738.2746,884.09875C745.21747,883.09064,697.8917,889.5518,738.75433,884.24005L760.4416,878.4923C760.49536,800.96967,752.40955,803.82806,752.40955,803.82806C751.65375,804.095,750.64557,804.52435,750.12286,804.73505C749.6269,804.9348,748.7275,805.1901,748.23737,805.33246C747.7243,805.4816,744.4589,806.58734,740.9925,807.7621C737.526,808.9371,732.9984,810.3954,730.93555,810.9697C728.87244,811.5444,726.0664,812.343,724.6798,812.7452C717.17596,814.91986,711.35333,816.0604,702.9687,817.08466C699.6607,817.4886,692.902,816.6314,690.3508,815.44C686.99585,813.8738,683.88916,811.78125,681.3794,809.39136C678.905,807.03503,677.3937,805.7456,676.0094,804.8363C675.5624,804.54285,673.70935,803.08624,671.906,801.6506C663.3937,794.874,655.251,791.19275,635.795,785.19727C621.7166,780.8584,609.48566,774.5212,600.7968,767.1415C599.1799,765.7683,597.2509,764.22815,596.5982,763.7629C595.597,763.04877,589.08514,756.75055,585.52496,753.0423C584.5235,751.99927,577.3147,743.7456,572.687,738.2965C569.3755,734.3971,565.1505,731.41534,563.19275,731.63727C559.2193,732.08826,555.24554,736.6865,554.6124,741.54407C554.26526,744.20953,555.13696,750.61646,555.932,751.2943C556.22314,751.54254,556.36487,752.134,556.30316,752.60803C556.16437,753.67426,559.41254,759.7026,563.1066,765.12177C566.038,769.42163,574.49396,779.3866,578.98413,783.8178C580.4724,785.2864,581.9237,786.7252,582.18335,787.006C583.82477,788.78033,593.35474,797.43835,593.6509,797.47687C593.8285,797.5,594.7435,798.2389,595.66504,799.1249C598.22363,801.5841,605.6022,807.4685,606.1946,807.54584C606.55023,807.59186,607.18134,808.225,607.6475,808.87976C608.50543,810.0845,608.13715,810.2089,596.5964,812.3191C590.055,813.5152,584.0146,814.61646,583.1423,814.7826C574.624,816.40497,560.07635,815.20245,552.738,812.32654C547.4093,810.2382,539.6024,806.72125,537.547,805.4672C536.58875,804.8826,535.5222,804.3597,535.1669,804.3134C534.8114,804.267,534.079,803.92114,533.526,803.49713C533.0381,803.1229,530.5778,801.70056,528.0965,800.31964C521.81506,796.82367,520.0061,795.8313,513.64685,791.9305C511.52713,790.6301,509.62094,789.53827,509.3248,789.4997C509.0286,789.461,508.11996,788.9926,507.2413,788.3847C504.47278,786.4692,501.61328,784.87994,500.78394,784.7718C500.31018,784.71,499.78064,784.3687,499.49097,784.0614C499.19586,783.74786,497.54114,782.8432,495.84137,782.01935C494.1413,781.1954,492.10645,780.1975,491.3701,779.8102C490.58414,779.3968,487.6957,778.3898,484.92087,777.524C480.40158,776.1138,479.40372,775.99054,475.19818,776.3169C464.91904,777.11487,459.673,780.91284,461.75003,786.13116C462.98587,789.2363,466.09195,791.128,475.25177,794.3973C486.2977,798.33984,494.656,803.1313,499.41663,808.2092C503.2774,812.32745,513.1634,820.7,519.4378,825.1563C527.5,830.8822,527.51587,831.587,519.4539,830.5802C516.4301,830.2024,511.81754,830.00665,509.14926,830.1409C506.48126,830.27563,503.46527,830.3043,502.51758,830.1807C499.73334,829.81793,492.09317,830.6121,486.33328,831.8669C477.21216,833.85376,469.16415,837.3993,464.41693,841.481C459.7337,845.5082,458.9911,849.22614,462.0515,853.1615C463.99664,855.66254,465.0783,855.85114,468.34348,854.34283C469.75766,853.68964,471.26114,853.2167,471.67587,853.2708C472.09042,853.32477,472.7137,853.165,473.04855,852.9074C473.9858,852.1862,488.4008,848.8238,489.82248,849.009C490.47427,849.0942,492.24356,848.8914,493.79636,848.56305C496.82782,847.9224,512.1413,849.69855,516.6491,851.1797C519.1314,851.99506,519.70355,853.6185,517.5251,853.70337C516.85785,853.7296,513.785,854.2625,510.74667,854.86865C490.0344,858.99927,478.7816,865.76587,483.9942,871.08215C485.96045,873.08734,487.34814,873.5953,490.21432,873.2782C492.84976,872.9867,498.26566,872.52844,507.00366,872.0323C509.85794,871.8699,513.3743,871.6162,514.9057,871.4958C517.69684,871.2759,522.30225,871.12274,529.7197,871.07684C532.00946,871.0627,535.161,870.96564,536.67896,870.8394C540.5208,870.51935,547.4852,870.8276,548.1167,871.3659C548.57135,871.7535,544.5524,874.21466,543.6639,874.09875C543.48627,874.07544,542.3349,874.5882,541.1606,875.27856C539.9862,875.96924,538.8352,876.48193,538.65735,876.4586C538.4204,876.42773,537.11584,877.0825,535.76013,877.8887C534.373,878.71326,533.04083,879.34143,532.8039,879.3104C532.5076,879.272,531.21466,879.94684,529.95795,880.8072C528.701,881.66724,526.8787,882.61066,526.0046,882.9426C524.2797,883.5977,519.45306,887.45044,519.3372,888.33923C519.29865,888.6354,519.6379,889.4879,520.11285,890.2473C521.4829,892.44,524.52246,892.93097,528.8336,891.7459L528.83386,891.74664L528.8336,891.7459L528.8336,891.74664L528.8336,891.7459 Z"/>
</g>
<g style="fill:rgb(0,0,0); fill-opacity:1.0; stroke-linejoin: miter">
<path d="M697.1108,804.1408L749.03125,789.27844L800.9522,774.4163Q815.7659,826.16614,830.5796,877.9156Q778.65924,892.7793,726.7387,907.64185Q711.92474,855.89154,697.1108,804.1408"/>
</g>
<g style="fill:rgb(0,0,0); fill-opacity:1.0; stroke-linejoin: miter">
<path d="M682.9761,809.71094L703.8731,804.6661L724.7701,799.6209Q736.163,846.809,747.5557,893.9969Q726.659,899.0424,705.7622,904.08826Q694.3689,856.8994,682.9761,809.71094"/>
</g>
<g style="fill:rgb(0,0,0); fill-opacity:1.0; stroke-linejoin: miter">
<path d="M213.28835,582.3167L213.28835,582.316L213.28835,582.3152L213.28822,582.316L213.28813,582.3152C211.2252,582.8914,208.9723,583.57166,208.2791,583.77246C205.52892,584.56903,197.49367,586.50134,194.9022,587.0298C193.34688,587.34656,190.56613,587.98346,188.69278,588.44946C184.52634,589.4856,165.05748,593.1826,159.95825,593.98206C157.9232,594.30133,155.59601,594.7062,154.72241,594.8662C153.86688,595.0232,151.39641,595.36816,149.19794,595.6523C146.98433,595.93823,143.98358,596.3476,142.45013,596.5803C135.01062,597.70825,107.70809,595.09344,99.013596,592.42584C88.59146,589.22815,85.10028,588.22504,82.1741,587.5804C80.41519,587.1929,77.155334,586.3283,74.89273,585.6674C72.68685,585.0232,67.93548,584.04266,64.33039,583.50775C55.589565,582.5965,45.595795,583.95807,45.595795,583.95807C42.709442,584.3513,38.054962,584.96356,33.027416,585.63354C25.486273,586.63873,23.338226,586.9732,21.66706,587.286C20.682617,587.4703,18.830368,587.7232,17.677614,587.8505C13.573163,588.30347,10.021565,588.85406,8.771429,589.1597C8.092306,589.3256,5.8693757,589.6703,3.8468847,589.9635C-3.0959923,590.97174,44.230026,584.51074,3.3671868,589.82227L-18.31998,595.56995C-18.373709,673.0926,-10.2877035,670.23444,-10.2877035,670.23444C-9.532172,669.9674,-8.523971,669.53796,-8.001189,669.3273C-7.505477,669.12756,-6.6060553,668.8722,-6.1158056,668.72974C-5.6027675,668.5806,-2.3375318,667.475,1.1289443,666.3002C4.595512,665.12524,9.123031,663.66705,11.185958,663.0927C13.249075,662.51807,16.055067,661.7195,17.4418,661.31726C24.94575,659.14264,30.768295,658.0021,39.15297,656.9778C42.460865,656.5738,49.21961,657.431,51.770847,658.6224C55.125767,660.18896,58.2325,662.2813,60.742188,664.6711C63.21672,667.02747,64.728,668.3171,66.11249,669.2262C66.55937,669.5196,68.41234,670.97626,70.215744,672.41187C78.7281,679.18835,86.87064,682.8697,106.32661,688.8653C120.405136,693.2039,132.63603,699.5411,141.32495,706.9211C142.94193,708.29425,144.87097,709.8343,145.52345,710.2995C146.52483,711.0136,153.0366,717.3118,156.5969,721.02014C157.59837,722.06323,164.80725,730.31683,169.43498,735.7661C172.74641,739.6654,176.97115,742.6473,178.929,742.42523C182.90245,741.9744,186.87639,737.37604,187.50941,732.51855C187.85655,729.853,186.9847,723.446,186.18956,722.768C185.89851,722.5199,185.75685,721.9284,185.8185,721.4544C185.95738,720.38824,182.7093,714.3599,179.01527,708.9408C176.08391,704.6408,167.62794,694.6759,163.13759,690.2445C161.64923,688.7759,160.19817,687.3371,159.93845,687.0563C158.29706,685.282,148.76706,676.62415,148.47096,676.58563C148.29321,676.56244,147.3783,675.8235,146.45668,674.93756C143.89815,672.4783,136.51933,666.59393,135.92705,666.5168C135.57147,666.47034,134.94048,665.8375,134.47415,665.1825C133.61627,663.9779,133.98453,663.85345,145.52544,661.7432C152.06688,660.5471,158.10718,659.44574,158.97943,659.27966C167.49783,657.65735,182.04555,658.8599,189.38396,661.73584C194.71251,663.8243,202.51933,667.3412,204.57484,668.5951C205.53316,669.17975,206.59966,669.70276,206.95503,669.74896C207.3105,669.79535,208.04303,670.1413,208.59592,670.5653C209.08392,670.9395,211.54407,672.36176,214.02539,673.7428C220.30667,677.23883,222.11563,678.23114,228.47491,682.13196C230.5947,683.4324,232.50085,684.5243,232.79694,684.56274C233.09311,684.60144,234.00186,685.0698,234.88052,685.67786C237.64905,687.5934,240.50851,689.1825,241.3378,689.2905C241.81161,689.35236,242.34113,689.69366,242.63083,690.001C242.92609,690.3147,244.58076,691.21924,246.28041,692.0432C247.98042,692.867,250.01537,693.8649,250.75182,694.25244C251.53767,694.66583,254.4261,695.67285,257.201,696.53864C261.72025,697.94867,262.7181,698.0719,266.9236,697.7456C277.20273,696.9476,282.4488,693.1497,280.37186,687.9315C279.13596,684.82605,276.02988,682.93463,266.87015,679.66534C255.82414,675.72266,247.46577,670.9311,242.70529,665.8533C238.84442,661.73505,228.95837,653.3625,222.68411,648.9064C214.62192,643.1804,214.60602,642.4756,222.66779,643.48224C225.69165,643.86005,230.30426,644.0558,232.97253,643.9215C235.64053,643.7869,238.65646,643.7581,239.60428,643.8818C242.38843,644.24457,250.0287,643.4505,255.78859,642.1957C264.90964,640.20886,272.95773,636.66327,277.70493,632.58154C282.38818,628.55457,283.13074,624.83655,280.0704,620.9012C278.1252,618.4001,277.0436,618.21155,273.7783,619.7197C272.36417,620.3729,270.86063,620.8457,270.4459,620.7916C270.03128,620.7377,269.40805,620.8974,269.0732,621.155C268.1359,621.8762,253.72115,625.23883,252.29942,625.05347C251.64772,624.96844,249.87837,625.1712,248.32542,625.4993C245.29408,626.1401,229.98059,624.36395,225.47269,622.8828C222.99036,622.0673,222.41824,620.444,224.59668,620.35913C225.26404,620.3329,228.33679,619.8,231.37515,619.194C252.08742,615.0631,263.34024,608.2967,258.1276,602.9804C256.1614,600.9752,254.77364,600.4672,251.90749,600.7844C249.27211,601.07587,243.85625,601.5343,235.1182,602.0303C232.26398,602.19275,228.74756,602.4463,227.21628,602.5668C224.42505,602.78674,219.8198,602.93994,212.40228,602.9858C210.11258,602.9999,206.96107,603.09705,205.44313,603.22327C201.60109,603.54315,194.63664,603.2348,194.00514,602.6965C193.55058,602.30914,197.56929,599.84784,198.45808,599.9637C198.6356,599.9869,199.78694,599.4741,200.96126,598.7837C202.1357,598.0932,203.28673,597.58057,203.46458,597.6039C203.70149,597.6348,205.00603,596.98,206.3619,596.1739C207.7491,595.34937,209.08113,594.7212,209.31813,594.7521C209.61443,594.7908,210.90733,594.1158,212.16414,593.25543C213.42097,592.39526,215.24333,591.4519,216.11742,591.12C217.84229,590.46497,222.66882,586.61206,222.78464,585.7232C222.82312,585.4271,222.48398,584.57465,222.00903,583.8151C220.63895,581.62274,217.59962,581.13184,213.28835,582.3167L213.28822,582.316L213.28835,582.3167L213.28835,582.316L213.28835,582.3167 Z"/>
</g>
<g style="fill:rgb(0,0,0); fill-opacity:1.0; stroke-linejoin: miter">
<path d="M45.01099,669.9216L-6.9098425,684.7839L-58.830788,699.64594Q-73.64454,647.8961,-88.45838,596.1465Q-36.537582,581.2832,15.382946,566.42084Q30.196983,618.17096,45.01099,669.9216"/>
</g>
<g style="fill:rgb(0,0,0); fill-opacity:1.0; stroke-linejoin: miter">
<path d="M59.145706,664.3516L38.24868,669.3965L17.351505,674.44147Q5.958732,627.2534,-5.4342256,580.0655Q15.462696,575.02014,36.359577,569.97437Q47.752644,617.163,59.145706,664.3516"/>
</g>
<g>
<g style="fill:rgb(0,0,0); fill-opacity:1.0; stroke-linejoin: miter">
<path d="M254.55261,735.3383L255.29944,722.4477L305.0309,689.8939L304.26572,688.6211L327.69507,673.2026L343.27847,696.765L319.93005,711.5453L315.92322,707.4805L267.2654,739.8553L254.55261,735.3383"/>
</g>
<g style="fill:rgb(0,0,0); fill-opacity:1.0; stroke-linejoin: miter">
<path d="M383.8805,652.2372L383.43207,651.64435Q382.50897,650.5101,381.37463,649.7891Q380.80762,649.42865,380.18732,649.17126Q379.90167,648.97626,378.22516,648.63556Q374.70868,648.2866,372.3363,650.4095Q371.82782,650.8883,371.42548,651.41504Q371.15805,651.6483,370.45602,653.1036Q369.96878,654.30176,369.90482,655.6922Q369.79123,658.64246,371.67563,661.12103Q372.62106,662.2356,373.00885,662.4866Q373.54636,662.9265,374.12534,663.261Q375.28336,663.9297,376.60733,664.17554Q377.94827,664.4249,379.25095,664.204Q380.6279,664.00024,382.0461,663.09265Q383.21176,662.26825,383.96127,661.205Q384.336,660.6732,384.60718,660.08203Q385.19342,658.55194,385.18585,658.17426Q385.30103,657.4936,385.3003,656.82214Q385.1978,655.1519,385.0384,654.8289Q384.69067,653.51416,383.8805,652.2372 M393.4035,646.9L395.12994,649.8197Q398.30795,655.6889,399.28668,661.80524Q399.77625,664.86346,399.7157,667.9835Q400.02142,669.54517,398.31268,677.4011Q397.4582,680.4525,396.11594,683.24274Q392.33298,689.99054,390.9908,691.02734Q386.7975,695.9261,380.8309,699.3806Q366.00543,706.9028,351.6792,702.0942Q345.82828,700.16486,340.80527,696.2424Q335.8665,692.83923,331.41898,685.364Q324.5621,674.0034,327.6355,658.89276Q329.0666,652.83466,332.49112,647.6048Q335.24985,642.7774,342.66455,637.16785Q348.47263,633.4395,354.52762,631.9109Q357.55493,631.14667,360.64386,630.93176Q368.42023,630.87695,370.04956,631.5255Q377.77533,633.47833,379.0074,634.4544Q381.7979,635.7966,384.32742,637.62695Q389.38687,641.28754,393.4035,646.9 Z"/>
</g>
<g style="fill:rgb(0,0,0); fill-opacity:1.0; stroke-linejoin: miter">
<path d="M315.2984,715.21L315.29846,715.2106L315.61118,702.7033Q310.7704,704.9951,305.9296,707.2869L315.2984,715.21"/>
</g>
<g style="fill:rgb(0,0,0); fill-opacity:1.0; stroke-linejoin: miter">
<path d="M310.54114,714.3733L310.85406,701.8664L301.17233,706.4501L310.54114,714.3733"/>
</g>
<g style="fill:rgb(0,0,0); fill-opacity:1.0; stroke-linejoin: miter">
<path d="M308.73196,717.8137L308.88806,711.5603L309.04468,705.3068Q304.2037,707.5987,299.363,709.8904Q304.0475,713.8521,308.73196,717.8137"/>
</g>
<g style="fill:rgb(0,0,0); fill-opacity:1.0; stroke-linejoin: miter">
<path d="M304.2234,718.9524L304.53616,706.4457L294.8544,711.02905L304.2234,718.9524"/>
</g>
<g style="fill:rgb(0,0,0); fill-opacity:1.0; stroke-linejoin: miter">
<path d="M458.03915,655.4485L457.94608,655.50903Q455.9155,657.0321,455.08652,658.4082Q454.59055,659.1511,454.23282,659.9675Q453.96774,660.3299,453.46945,662.58136Q452.8024,666.76825,455.4152,670.5157Q456.01163,671.2871,456.68143,671.9207Q456.9706,672.324,458.85538,673.5112Q460.41483,674.36505,462.2673,674.66736Q464.0245,674.9471,465.70462,674.64954Q466.13657,674.6652,468.18082,673.8777Q468.99173,673.5118,469.78348,673.0023Q473.4039,670.64935,474.35327,665.86957Q474.50153,664.93896,474.4878,664.0305Q474.3117,661.7774,474.08215,661.35284Q473.5689,659.6006,472.4077,657.935Q471.8111,657.16345,471.14136,656.52997Q469.40277,655.06665,468.96735,654.93933Q467.40796,654.08575,465.55563,653.7835Q463.79807,653.5032,462.118,653.8012Q461.68607,653.785,459.6418,654.5729Q458.83102,654.93854,458.03915,655.4485 M446.416,632.95166L501.15738,644.09644L486.3988,618.0119L498.0685,611.4088L518.1967,646.98364L528.3626,649.6231L539.3015,668.0637L528.0205,665.6387L563.87634,729.01013L467.4314,783.5779L432.20667,721.3228L428.40552,730.81024L417.89902,712.2334L446.416,632.95166 Z"/>
</g>
<g style="fill:rgb(0,0,0); fill-opacity:1.0; stroke-linejoin: miter">
<path d="M447.15744,634.2701L419.1524,712.12555L428.2298,728.17535L431.1447,720.8973L433.20258,720.75903L467.86475,782.02014L562.3179,728.57886L527.0249,666.2024L528.2611,664.5201L536.9822,666.39575L527.61676,650.6085L517.98285,648.04333Q519.75885,648.1125,517.201,647.5471L497.63608,612.96796L487.95792,618.4441L502.15317,643.53296L500.9291,645.2174L447.15744,634.2701 M445.33926,632.56433L446.644,631.83026L498.9257,642.4753L485.40283,618.57513L485.83508,617.0159L497.50485,610.41284L499.06424,610.84515L518.9118,645.92365L528.6569,648.51746L529.3465,649.0395L540.28577,667.47986L539.06134,669.18243L530.2711,667.2925L564.8721,728.44635L564.4396,730.0058L467.9948,784.574L466.43552,784.1414L432.38324,723.9582L429.4676,731.23584L427.4095,731.3734L416.90317,712.79675L417.48837,713.3016L416.821,711.8457L445.33926,632.56433 Z"/>
</g>
<g style="fill:rgb(0,0,0); fill-opacity:1.0; stroke-linejoin: miter">
<path d="M467.4833,656.8685L467.48337,656.8689C468.4322,643.04865,445.01175,633.29596,421.11203,631.6547L421.11203,631.65497C397.21243,630.0135,372.67865,636.4732,371.7298,650.293L371.72992,650.2934C370.78082,664.11304,394.20126,673.86597,418.10104,675.507L418.10104,675.5074C442.0008,677.1484,466.53445,670.6884,467.4833,656.8685L467.48337,656.8689 M461.49655,656.4577L461.49667,656.458C461.00974,663.5505,444.1894,671.2837,418.51212,669.52014L418.51224,669.5206C392.83496,667.7571,377.22934,657.79706,377.7163,650.70404L377.71625,650.7044C378.20337,643.6114,395.0239,635.8782,420.701,637.64136L420.701,637.6417C446.3782,639.40466,461.9838,649.36475,461.49655,656.4577 Z"/>
</g>
</g>
</g>
</svg>